<mxfile host="app.diagrams.net" modified="2024-05-10T21:16:33.464Z" agent="Mozilla/5.0 (Macintosh; Intel Mac OS X 10_15_7) AppleWebKit/537.36 (KHTML, like Gecko) Chrome/124.0.0.0 Safari/537.36" etag="qXMIeRGDr9APrPuGbwMF" version="24.3.1" type="device">
  <diagram name="PÃ¡gina-1" id="aAVNwj9RUjulyOsycIOe">
    <mxGraphModel dx="2163" dy="761" grid="1" gridSize="10" guides="1" tooltips="1" connect="1" arrows="1" fold="1" page="1" pageScale="1" pageWidth="827" pageHeight="1169" math="0" shadow="0">
      <root>
        <mxCell id="0" />
        <mxCell id="1" parent="0" />
        <mxCell id="7g8Oivj_jU1jaNTbHxk_-7" style="rounded=0;orthogonalLoop=1;jettySize=auto;html=1;entryX=0;entryY=0.5;entryDx=0;entryDy=0;endArrow=none;endFill=0;" edge="1" parent="1" source="7g8Oivj_jU1jaNTbHxk_-1" target="7g8Oivj_jU1jaNTbHxk_-5">
          <mxGeometry relative="1" as="geometry" />
        </mxCell>
        <mxCell id="7g8Oivj_jU1jaNTbHxk_-57" value="1" style="edgeLabel;html=1;align=center;verticalAlign=middle;resizable=0;points=[];" vertex="1" connectable="0" parent="7g8Oivj_jU1jaNTbHxk_-7">
          <mxGeometry x="0.1667" y="-3" relative="1" as="geometry">
            <mxPoint x="-25" y="-13" as="offset" />
          </mxGeometry>
        </mxCell>
        <mxCell id="7g8Oivj_jU1jaNTbHxk_-58" value="n" style="edgeLabel;html=1;align=center;verticalAlign=middle;resizable=0;points=[];" vertex="1" connectable="0" parent="7g8Oivj_jU1jaNTbHxk_-7">
          <mxGeometry x="-0.4333" y="1" relative="1" as="geometry">
            <mxPoint x="223" y="-9" as="offset" />
          </mxGeometry>
        </mxCell>
        <mxCell id="7g8Oivj_jU1jaNTbHxk_-1" value="Cliente" style="whiteSpace=wrap;html=1;align=center;" vertex="1" parent="1">
          <mxGeometry x="10" y="280" width="100" height="40" as="geometry" />
        </mxCell>
        <mxCell id="7g8Oivj_jU1jaNTbHxk_-9" style="edgeStyle=none;rounded=0;orthogonalLoop=1;jettySize=auto;html=1;exitX=1;exitY=0.5;exitDx=0;exitDy=0;entryX=0;entryY=0.5;entryDx=0;entryDy=0;endArrow=none;endFill=0;" edge="1" parent="1" source="7g8Oivj_jU1jaNTbHxk_-2" target="7g8Oivj_jU1jaNTbHxk_-6">
          <mxGeometry relative="1" as="geometry" />
        </mxCell>
        <mxCell id="7g8Oivj_jU1jaNTbHxk_-59" value="n" style="edgeLabel;html=1;align=center;verticalAlign=middle;resizable=0;points=[];" vertex="1" connectable="0" parent="7g8Oivj_jU1jaNTbHxk_-9">
          <mxGeometry x="-0.44" relative="1" as="geometry">
            <mxPoint x="-4" y="-10" as="offset" />
          </mxGeometry>
        </mxCell>
        <mxCell id="7g8Oivj_jU1jaNTbHxk_-54" style="edgeStyle=none;rounded=0;orthogonalLoop=1;jettySize=auto;html=1;entryX=0.5;entryY=1;entryDx=0;entryDy=0;endArrow=none;endFill=0;" edge="1" parent="1" source="7g8Oivj_jU1jaNTbHxk_-2" target="7g8Oivj_jU1jaNTbHxk_-51">
          <mxGeometry relative="1" as="geometry" />
        </mxCell>
        <mxCell id="7g8Oivj_jU1jaNTbHxk_-2" value="DetallePlan" style="whiteSpace=wrap;html=1;align=center;" vertex="1" parent="1">
          <mxGeometry x="360" y="280" width="100" height="40" as="geometry" />
        </mxCell>
        <mxCell id="7g8Oivj_jU1jaNTbHxk_-47" style="edgeStyle=none;rounded=0;orthogonalLoop=1;jettySize=auto;html=1;entryX=0.5;entryY=1;entryDx=0;entryDy=0;endArrow=none;endFill=0;" edge="1" parent="1" source="7g8Oivj_jU1jaNTbHxk_-3" target="7g8Oivj_jU1jaNTbHxk_-33">
          <mxGeometry relative="1" as="geometry" />
        </mxCell>
        <mxCell id="7g8Oivj_jU1jaNTbHxk_-3" value="Plan" style="whiteSpace=wrap;html=1;align=center;" vertex="1" parent="1">
          <mxGeometry x="670" y="280" width="100" height="40" as="geometry" />
        </mxCell>
        <mxCell id="7g8Oivj_jU1jaNTbHxk_-27" style="edgeStyle=none;rounded=0;orthogonalLoop=1;jettySize=auto;html=1;exitX=0.5;exitY=0;exitDx=0;exitDy=0;entryX=0.5;entryY=1;entryDx=0;entryDy=0;endArrow=none;endFill=0;" edge="1" parent="1" source="7g8Oivj_jU1jaNTbHxk_-4" target="7g8Oivj_jU1jaNTbHxk_-11">
          <mxGeometry relative="1" as="geometry" />
        </mxCell>
        <mxCell id="7g8Oivj_jU1jaNTbHxk_-4" value="Estado" style="whiteSpace=wrap;html=1;align=center;" vertex="1" parent="1">
          <mxGeometry x="360" y="480" width="100" height="40" as="geometry" />
        </mxCell>
        <mxCell id="7g8Oivj_jU1jaNTbHxk_-8" style="edgeStyle=none;rounded=0;orthogonalLoop=1;jettySize=auto;html=1;exitX=1;exitY=0.5;exitDx=0;exitDy=0;entryX=0;entryY=0.5;entryDx=0;entryDy=0;endArrow=none;endFill=0;" edge="1" parent="1" source="7g8Oivj_jU1jaNTbHxk_-5" target="7g8Oivj_jU1jaNTbHxk_-2">
          <mxGeometry relative="1" as="geometry" />
        </mxCell>
        <mxCell id="7g8Oivj_jU1jaNTbHxk_-5" value="Obtener" style="shape=rhombus;perimeter=rhombusPerimeter;whiteSpace=wrap;html=1;align=center;" vertex="1" parent="1">
          <mxGeometry x="170" y="270" width="120" height="60" as="geometry" />
        </mxCell>
        <mxCell id="7g8Oivj_jU1jaNTbHxk_-10" style="edgeStyle=none;rounded=0;orthogonalLoop=1;jettySize=auto;html=1;exitX=1;exitY=0.5;exitDx=0;exitDy=0;entryX=0;entryY=0.5;entryDx=0;entryDy=0;endArrow=none;endFill=0;" edge="1" parent="1" source="7g8Oivj_jU1jaNTbHxk_-6" target="7g8Oivj_jU1jaNTbHxk_-3">
          <mxGeometry relative="1" as="geometry" />
        </mxCell>
        <mxCell id="7g8Oivj_jU1jaNTbHxk_-60" value="1" style="edgeLabel;html=1;align=center;verticalAlign=middle;resizable=0;points=[];" vertex="1" connectable="0" parent="7g8Oivj_jU1jaNTbHxk_-10">
          <mxGeometry x="0.05" y="-2" relative="1" as="geometry">
            <mxPoint x="9" y="-12" as="offset" />
          </mxGeometry>
        </mxCell>
        <mxCell id="7g8Oivj_jU1jaNTbHxk_-6" value="pertenece" style="shape=rhombus;perimeter=rhombusPerimeter;whiteSpace=wrap;html=1;align=center;" vertex="1" parent="1">
          <mxGeometry x="510" y="270" width="120" height="60" as="geometry" />
        </mxCell>
        <mxCell id="7g8Oivj_jU1jaNTbHxk_-28" style="edgeStyle=none;rounded=0;orthogonalLoop=1;jettySize=auto;html=1;exitX=0.5;exitY=0;exitDx=0;exitDy=0;entryX=0.5;entryY=1;entryDx=0;entryDy=0;endArrow=none;endFill=0;" edge="1" parent="1" source="7g8Oivj_jU1jaNTbHxk_-11" target="7g8Oivj_jU1jaNTbHxk_-2">
          <mxGeometry relative="1" as="geometry">
            <Array as="points" />
          </mxGeometry>
        </mxCell>
        <mxCell id="7g8Oivj_jU1jaNTbHxk_-61" value="1" style="edgeLabel;html=1;align=center;verticalAlign=middle;resizable=0;points=[];" vertex="1" connectable="0" parent="7g8Oivj_jU1jaNTbHxk_-28">
          <mxGeometry x="0.24" y="2" relative="1" as="geometry">
            <mxPoint x="6" y="131" as="offset" />
          </mxGeometry>
        </mxCell>
        <mxCell id="7g8Oivj_jU1jaNTbHxk_-62" value="n" style="edgeLabel;html=1;align=center;verticalAlign=middle;resizable=0;points=[];" vertex="1" connectable="0" parent="7g8Oivj_jU1jaNTbHxk_-28">
          <mxGeometry x="-0.04" y="-2" relative="1" as="geometry">
            <mxPoint x="2" y="-16" as="offset" />
          </mxGeometry>
        </mxCell>
        <mxCell id="7g8Oivj_jU1jaNTbHxk_-11" value="cuenta" style="shape=rhombus;perimeter=rhombusPerimeter;whiteSpace=wrap;html=1;align=center;" vertex="1" parent="1">
          <mxGeometry x="350" y="370" width="120" height="60" as="geometry" />
        </mxCell>
        <mxCell id="7g8Oivj_jU1jaNTbHxk_-22" style="edgeStyle=none;rounded=0;orthogonalLoop=1;jettySize=auto;html=1;exitX=0.5;exitY=1;exitDx=0;exitDy=0;entryX=0.5;entryY=0;entryDx=0;entryDy=0;endArrow=none;endFill=0;" edge="1" parent="1" target="7g8Oivj_jU1jaNTbHxk_-1">
          <mxGeometry relative="1" as="geometry">
            <mxPoint x="20" y="210" as="sourcePoint" />
          </mxGeometry>
        </mxCell>
        <mxCell id="7g8Oivj_jU1jaNTbHxk_-21" style="edgeStyle=none;rounded=0;orthogonalLoop=1;jettySize=auto;html=1;exitX=1;exitY=1;exitDx=0;exitDy=0;entryX=0;entryY=0;entryDx=0;entryDy=0;endArrow=none;endFill=0;" edge="1" parent="1" target="7g8Oivj_jU1jaNTbHxk_-1">
          <mxGeometry relative="1" as="geometry">
            <mxPoint x="-14.644660940672566" y="244.14213562373095" as="sourcePoint" />
          </mxGeometry>
        </mxCell>
        <mxCell id="7g8Oivj_jU1jaNTbHxk_-23" style="edgeStyle=none;rounded=0;orthogonalLoop=1;jettySize=auto;html=1;exitX=1;exitY=0.5;exitDx=0;exitDy=0;entryX=0;entryY=0.25;entryDx=0;entryDy=0;endArrow=none;endFill=0;" edge="1" parent="1" target="7g8Oivj_jU1jaNTbHxk_-1">
          <mxGeometry relative="1" as="geometry">
            <mxPoint x="-50" y="278" as="sourcePoint" />
          </mxGeometry>
        </mxCell>
        <mxCell id="7g8Oivj_jU1jaNTbHxk_-25" style="edgeStyle=none;rounded=0;orthogonalLoop=1;jettySize=auto;html=1;exitX=1;exitY=0;exitDx=0;exitDy=0;entryX=0;entryY=1;entryDx=0;entryDy=0;endArrow=none;endFill=0;" edge="1" parent="1" target="7g8Oivj_jU1jaNTbHxk_-1">
          <mxGeometry relative="1" as="geometry">
            <mxPoint x="-11.644660940672566" y="355.85786437626894" as="sourcePoint" />
          </mxGeometry>
        </mxCell>
        <mxCell id="7g8Oivj_jU1jaNTbHxk_-26" style="edgeStyle=none;rounded=0;orthogonalLoop=1;jettySize=auto;html=1;exitX=0.4;exitY=0;exitDx=0;exitDy=0;entryX=0.5;entryY=1;entryDx=0;entryDy=0;endArrow=none;endFill=0;exitPerimeter=0;" edge="1" parent="1" source="7g8Oivj_jU1jaNTbHxk_-38" target="7g8Oivj_jU1jaNTbHxk_-1">
          <mxGeometry relative="1" as="geometry">
            <mxPoint x="60" y="350" as="sourcePoint" />
          </mxGeometry>
        </mxCell>
        <mxCell id="7g8Oivj_jU1jaNTbHxk_-24" style="edgeStyle=none;rounded=0;orthogonalLoop=1;jettySize=auto;html=1;exitX=1;exitY=0.5;exitDx=0;exitDy=0;entryX=0;entryY=0.75;entryDx=0;entryDy=0;endArrow=none;endFill=0;" edge="1" parent="1" target="7g8Oivj_jU1jaNTbHxk_-1">
          <mxGeometry relative="1" as="geometry">
            <mxPoint x="-50" y="327" as="sourcePoint" />
          </mxGeometry>
        </mxCell>
        <mxCell id="7g8Oivj_jU1jaNTbHxk_-50" style="edgeStyle=none;rounded=0;orthogonalLoop=1;jettySize=auto;html=1;entryX=1;entryY=0;entryDx=0;entryDy=0;endArrow=none;endFill=0;exitX=0.08;exitY=0.875;exitDx=0;exitDy=0;exitPerimeter=0;" edge="1" parent="1" source="7g8Oivj_jU1jaNTbHxk_-29" target="7g8Oivj_jU1jaNTbHxk_-2">
          <mxGeometry relative="1" as="geometry">
            <mxPoint x="500" y="270" as="sourcePoint" />
          </mxGeometry>
        </mxCell>
        <mxCell id="7g8Oivj_jU1jaNTbHxk_-29" value="Descuento" style="ellipse;whiteSpace=wrap;html=1;align=center;" vertex="1" parent="1">
          <mxGeometry x="500" y="210" width="100" height="40" as="geometry" />
        </mxCell>
        <mxCell id="7g8Oivj_jU1jaNTbHxk_-49" style="edgeStyle=none;rounded=0;orthogonalLoop=1;jettySize=auto;html=1;exitX=0;exitY=0.5;exitDx=0;exitDy=0;entryX=1;entryY=0.5;entryDx=0;entryDy=0;endArrow=none;endFill=0;" edge="1" parent="1" source="7g8Oivj_jU1jaNTbHxk_-30" target="7g8Oivj_jU1jaNTbHxk_-3">
          <mxGeometry relative="1" as="geometry" />
        </mxCell>
        <mxCell id="7g8Oivj_jU1jaNTbHxk_-30" value="Precio" style="ellipse;whiteSpace=wrap;html=1;align=center;" vertex="1" parent="1">
          <mxGeometry x="810" y="280" width="100" height="40" as="geometry" />
        </mxCell>
        <mxCell id="7g8Oivj_jU1jaNTbHxk_-48" style="edgeStyle=none;rounded=0;orthogonalLoop=1;jettySize=auto;html=1;endArrow=none;endFill=0;entryX=1;entryY=0;entryDx=0;entryDy=0;" edge="1" parent="1" source="7g8Oivj_jU1jaNTbHxk_-31" target="7g8Oivj_jU1jaNTbHxk_-3">
          <mxGeometry relative="1" as="geometry">
            <mxPoint x="760" y="270" as="targetPoint" />
          </mxGeometry>
        </mxCell>
        <mxCell id="7g8Oivj_jU1jaNTbHxk_-31" value="Velocidad_Megas" style="ellipse;whiteSpace=wrap;html=1;align=center;" vertex="1" parent="1">
          <mxGeometry x="780" y="220" width="100" height="40" as="geometry" />
        </mxCell>
        <mxCell id="7g8Oivj_jU1jaNTbHxk_-33" value="ID_Plan" style="ellipse;whiteSpace=wrap;html=1;align=center;fontStyle=4;" vertex="1" parent="1">
          <mxGeometry x="670" y="200" width="100" height="40" as="geometry" />
        </mxCell>
        <mxCell id="7g8Oivj_jU1jaNTbHxk_-42" style="edgeStyle=none;rounded=0;orthogonalLoop=1;jettySize=auto;html=1;exitX=0.5;exitY=0;exitDx=0;exitDy=0;entryX=0.5;entryY=1;entryDx=0;entryDy=0;endArrow=none;endFill=0;" edge="1" parent="1" source="7g8Oivj_jU1jaNTbHxk_-34" target="7g8Oivj_jU1jaNTbHxk_-4">
          <mxGeometry relative="1" as="geometry" />
        </mxCell>
        <mxCell id="7g8Oivj_jU1jaNTbHxk_-34" value="ID_Estado" style="ellipse;whiteSpace=wrap;html=1;align=center;fontStyle=4;" vertex="1" parent="1">
          <mxGeometry x="360" y="560" width="100" height="40" as="geometry" />
        </mxCell>
        <mxCell id="7g8Oivj_jU1jaNTbHxk_-43" style="edgeStyle=none;rounded=0;orthogonalLoop=1;jettySize=auto;html=1;exitX=1;exitY=0;exitDx=0;exitDy=0;entryX=0;entryY=1;entryDx=0;entryDy=0;endArrow=none;endFill=0;" edge="1" parent="1" source="7g8Oivj_jU1jaNTbHxk_-35" target="7g8Oivj_jU1jaNTbHxk_-4">
          <mxGeometry relative="1" as="geometry" />
        </mxCell>
        <mxCell id="7g8Oivj_jU1jaNTbHxk_-35" value="Nombre" style="ellipse;whiteSpace=wrap;html=1;align=center;" vertex="1" parent="1">
          <mxGeometry x="240" y="530" width="100" height="40" as="geometry" />
        </mxCell>
        <mxCell id="7g8Oivj_jU1jaNTbHxk_-46" style="edgeStyle=none;rounded=0;orthogonalLoop=1;jettySize=auto;html=1;exitX=0;exitY=0;exitDx=0;exitDy=0;entryX=1;entryY=1;entryDx=0;entryDy=0;endArrow=none;endFill=0;" edge="1" parent="1" source="7g8Oivj_jU1jaNTbHxk_-36" target="7g8Oivj_jU1jaNTbHxk_-4">
          <mxGeometry relative="1" as="geometry" />
        </mxCell>
        <mxCell id="7g8Oivj_jU1jaNTbHxk_-36" value="Descripcion" style="ellipse;whiteSpace=wrap;html=1;align=center;" vertex="1" parent="1">
          <mxGeometry x="480" y="530" width="100" height="40" as="geometry" />
        </mxCell>
        <mxCell id="7g8Oivj_jU1jaNTbHxk_-37" value="Nombre" style="ellipse;whiteSpace=wrap;html=1;align=center;" vertex="1" parent="1">
          <mxGeometry x="-100" y="210" width="100" height="40" as="geometry" />
        </mxCell>
        <mxCell id="7g8Oivj_jU1jaNTbHxk_-38" value="Ciudad" style="ellipse;whiteSpace=wrap;html=1;align=center;" vertex="1" parent="1">
          <mxGeometry x="-40" y="390" width="100" height="40" as="geometry" />
        </mxCell>
        <mxCell id="7g8Oivj_jU1jaNTbHxk_-39" value="Provincia" style="ellipse;whiteSpace=wrap;html=1;align=center;" vertex="1" parent="1">
          <mxGeometry x="-100" y="350" width="100" height="40" as="geometry" />
        </mxCell>
        <mxCell id="7g8Oivj_jU1jaNTbHxk_-40" value="Fecha_Nacimiento" style="ellipse;whiteSpace=wrap;html=1;align=center;" vertex="1" parent="1">
          <mxGeometry x="-160" y="310" width="110" height="40" as="geometry" />
        </mxCell>
        <mxCell id="7g8Oivj_jU1jaNTbHxk_-41" value="Apellido" style="ellipse;whiteSpace=wrap;html=1;align=center;" vertex="1" parent="1">
          <mxGeometry x="-150" y="260" width="100" height="40" as="geometry" />
        </mxCell>
        <mxCell id="7g8Oivj_jU1jaNTbHxk_-51" value="ID_DETALLE_PLAN" style="ellipse;whiteSpace=wrap;html=1;align=center;fontStyle=4;" vertex="1" parent="1">
          <mxGeometry x="345" y="140" width="130" height="40" as="geometry" />
        </mxCell>
        <mxCell id="7g8Oivj_jU1jaNTbHxk_-55" style="edgeStyle=none;rounded=0;orthogonalLoop=1;jettySize=auto;html=1;exitX=0.5;exitY=1;exitDx=0;exitDy=0;entryX=0.25;entryY=0;entryDx=0;entryDy=0;endArrow=none;endFill=0;" edge="1" parent="1" source="7g8Oivj_jU1jaNTbHxk_-52" target="7g8Oivj_jU1jaNTbHxk_-2">
          <mxGeometry relative="1" as="geometry" />
        </mxCell>
        <mxCell id="7g8Oivj_jU1jaNTbHxk_-52" value="FECHA_INICIO" style="ellipse;whiteSpace=wrap;html=1;align=center;" vertex="1" parent="1">
          <mxGeometry x="270" y="170" width="100" height="40" as="geometry" />
        </mxCell>
        <mxCell id="7g8Oivj_jU1jaNTbHxk_-56" style="edgeStyle=none;rounded=0;orthogonalLoop=1;jettySize=auto;html=1;exitX=0.5;exitY=1;exitDx=0;exitDy=0;entryX=0.75;entryY=0;entryDx=0;entryDy=0;endArrow=none;endFill=0;" edge="1" parent="1" source="7g8Oivj_jU1jaNTbHxk_-53" target="7g8Oivj_jU1jaNTbHxk_-2">
          <mxGeometry relative="1" as="geometry" />
        </mxCell>
        <mxCell id="7g8Oivj_jU1jaNTbHxk_-53" value="FECHA_CORTE" style="ellipse;whiteSpace=wrap;html=1;align=center;" vertex="1" parent="1">
          <mxGeometry x="450" y="169" width="100" height="40" as="geometry" />
        </mxCell>
        <mxCell id="7g8Oivj_jU1jaNTbHxk_-64" style="edgeStyle=none;rounded=0;orthogonalLoop=1;jettySize=auto;html=1;exitX=0.5;exitY=1;exitDx=0;exitDy=0;entryX=0.75;entryY=0;entryDx=0;entryDy=0;endArrow=none;endFill=0;" edge="1" parent="1" source="7g8Oivj_jU1jaNTbHxk_-63" target="7g8Oivj_jU1jaNTbHxk_-1">
          <mxGeometry relative="1" as="geometry" />
        </mxCell>
        <mxCell id="7g8Oivj_jU1jaNTbHxk_-63" value="ID_Cliente" style="ellipse;whiteSpace=wrap;html=1;align=center;fontStyle=4;" vertex="1" parent="1">
          <mxGeometry x="40" y="209" width="100" height="40" as="geometry" />
        </mxCell>
        <mxCell id="7g8Oivj_jU1jaNTbHxk_-65" value="DNI" style="ellipse;whiteSpace=wrap;html=1;align=center;" vertex="1" parent="1">
          <mxGeometry x="-30" y="169" width="100" height="40" as="geometry" />
        </mxCell>
        <mxCell id="7g8Oivj_jU1jaNTbHxk_-67" style="edgeStyle=none;rounded=0;orthogonalLoop=1;jettySize=auto;html=1;exitX=1;exitY=1;exitDx=0;exitDy=0;entryX=0;entryY=0;entryDx=0;entryDy=0;endArrow=none;endFill=0;" edge="1" parent="1" source="7g8Oivj_jU1jaNTbHxk_-66" target="7g8Oivj_jU1jaNTbHxk_-2">
          <mxGeometry relative="1" as="geometry" />
        </mxCell>
        <mxCell id="7g8Oivj_jU1jaNTbHxk_-66" value="Fecha_fin" style="ellipse;whiteSpace=wrap;html=1;align=center;" vertex="1" parent="1">
          <mxGeometry x="220" y="210" width="100" height="40" as="geometry" />
        </mxCell>
        <mxCell id="7g8Oivj_jU1jaNTbHxk_-69" style="edgeStyle=none;rounded=0;orthogonalLoop=1;jettySize=auto;html=1;exitX=0.5;exitY=0;exitDx=0;exitDy=0;entryX=0.75;entryY=1;entryDx=0;entryDy=0;endArrow=none;endFill=0;" edge="1" parent="1" source="7g8Oivj_jU1jaNTbHxk_-68" target="7g8Oivj_jU1jaNTbHxk_-1">
          <mxGeometry relative="1" as="geometry" />
        </mxCell>
        <mxCell id="7g8Oivj_jU1jaNTbHxk_-68" value="Direccion" style="ellipse;whiteSpace=wrap;html=1;align=center;" vertex="1" parent="1">
          <mxGeometry x="40" y="350" width="100" height="40" as="geometry" />
        </mxCell>
      </root>
    </mxGraphModel>
  </diagram>
</mxfile>
